{"title":"Mulk 2018 Hindi 1080p WEB-DL x264 [MW]","magnet":"magnet:?xt=urn:btih:f1088be4591f678694d06e1bde412ee62af4a9f9&dn=Mulk+2018+Hindi+1080p+WEB-DL+x264+%5BMW%5D&tr=udp%3A%2F%2Ftracker.leechers-paradise.org%3A6969&tr=udp%3A%2F%2Fzer0day.ch%3A1337&tr=udp%3A%2F%2Fopen.demonii.com%3A1337&tr=udp%3A%2F%2Ftracker.coppersurfer.tk%3A6969&tr=udp%3A%2F%2Fexodus.desync.com%3A6969","uploader":"MFreaky","categoryP":"video","categoryS":"hd___movies","size":"2208132436","seeders":"10","leechers":"19","description":" <a href=\"https://pichub.site/image/ETGzJ\" rel=\"nofollow\" target=\"_NEW\">https://pichub.site/image/ETGzJ</a> <a href=\"\nhttps://pichub.site/image/ETuY8\" rel=\"nofollow\" target=\"_NEW\">\nhttps://pichub.site/image/ETuY8</a> <a href=\"\nhttps://pichub.site/image/ETUjh\" rel=\"nofollow\" target=\"_NEW\">\nhttps://pichub.site/image/ETUjh</a> <a href=\"\nhttps://pichub.site/image/ETN25\" rel=\"nofollow\" target=\"_NEW\">\nhttps://pichub.site/image/ETN25</a> <a href=\"\nhttps://pichub.site/image/ET0xr\" rel=\"nofollow\" target=\"_NEW\">\nhttps://pichub.site/image/ET0xr</a>\r\n\r\nIMDB  <a href=\"\nhttps://www.imdb.com/title/tt7618184/\" rel=\"nofollow\" target=\"_NEW\">\nhttps://www.imdb.com/title/tt7618184/</a>\r\n\r\nVideo\r\nFormat                                   : AVC\r\nFormat/Info                              : Advanced Video Codec\r\nFormat profile                           : High@L4.1\r\nFormat settings                          : CABAC / 5 Ref Frames\r\nFormat settings, CABAC                   : Yes\r\nFormat settings, RefFrames               : 5 frames\r\nCodec ID                                 : V_MPEG4/ISO/AVC\r\nDuration                                 : 2 h 14 min\r\nBit rate                                 : 2 000 kb/s\r\nWidth                                    : 1 920 pixels\r\nHeight                                   : 806 pixels\r\nDisplay aspect ratio                     : 2.40:1\r\nFrame rate mode                          : Constant\r\nFrame rate                               : 25.000 FPS\r\nColor space                              : YUV\r\nChroma subsampling                       : 4:2:0\r\nBit depth                                : 8 bits\r\nBits/(Pixel*Frame)                       : 0.052\r\nStream size                              : 1.90 GiB (93%)\r\nWriting library                          : x264 core 155 r2901 7d0ff22\r\n\r\nAudio\r\nFormat                                   : AAC\r\nFormat/Info                              : Advanced Audio Codec\r\nFormat profile                           : LC\r\nCodec ID                                 : A_AAC-2\r\nDuration                                 : 2 h 14 min\r\nBit rate                                 : 160 kb/s\r\nChannel(s)                               : 2 channels\r\nChannel positions                        : Front: L R\r\nSampling rate                            : 48.0 kHz\r\nFrame rate                               : 46.875 FPS (1024 SPF)\r\nStream size                              : 154 MiB (7%)\r\nLanguage                                 : Hindi","last_updated":"2018-10-03T12:10:43.007Z","parsed":{"xt":"urn:btih:f1088be4591f678694d06e1bde412ee62af4a9f9","dn":"Mulk 2018 Hindi 1080p WEB-DL x264 [MW]","tr":["udp://exodus.desync.com:6969","udp://open.demonii.com:1337","udp://tracker.coppersurfer.tk:6969","udp://tracker.leechers-paradise.org:6969","udp://zer0day.ch:1337"],"infoHash":"f1088be4591f678694d06e1bde412ee62af4a9f9","infoHashBuffer":{"type":"Buffer","data":[241,8,139,228,89,31,103,134,148,208,110,27,222,65,46,230,42,244,169,249]},"name":"Mulk 2018 Hindi 1080p WEB-DL x264 [MW]","announce":["udp://exodus.desync.com:6969","udp://open.demonii.com:1337","udp://tracker.coppersurfer.tk:6969","udp://tracker.leechers-paradise.org:6969","udp://zer0day.ch:1337"],"urlList":[]}}